<svg width="249" height="58" viewBox="0 0 249 58" fill="none" xmlns="http://www.w3.org/2000/svg">
<path d="M248.235 48.6157L248.619 49.1437L248.187 53.9917L3.2665 53.7037L3.6025 44.4877L0 7.95198H19.584L19.968 8.47998L22.7545 28.1677L15.3625 27.9277L9.7945 27.9757L9.6505 35.4157L14.9785 35.5117L20.0185 35.3677L20.4025 35.8477L19.9705 40.6957L14.4985 40.5517L9.5545 40.5997L9.5065 43.9117L9.6505 48.5677L15.0745 48.6157H248.235Z" fill="#5927E5"/>
<path d="M47.4857 27.4477C49.5977 27.9597 51.1497 28.8237 52.1417 30.0397C53.1657 31.2237 53.6777 32.7917 53.6777 34.7437C53.6777 40.7277 48.9897 43.7197 39.6137 43.7197C36.8617 43.7197 34.0457 43.6397 31.1657 43.4797L31.5017 34.2637L31.1657 12.5677L42.1577 12.5197C45.3257 12.5197 47.7897 13.1917 49.5497 14.5357C51.3097 15.8477 52.1897 17.7517 52.1897 20.2477C52.1897 21.9117 51.7737 23.3677 50.9417 24.6157C50.1417 25.8637 48.9897 26.8077 47.4857 27.4477ZM45.5177 21.1117C45.5177 19.7037 45.1017 18.7117 44.2697 18.1357C43.4377 17.5277 41.9817 17.2237 39.9017 17.2237H37.5497L37.4057 25.6237L41.9177 25.7677C43.1337 25.4477 44.0297 24.9197 44.6057 24.1837C45.2137 23.4477 45.5177 22.4237 45.5177 21.1117ZM40.7177 39.0637C42.7337 39.0637 44.2857 38.6637 45.3737 37.8637C46.4937 37.0637 47.0537 35.9117 47.0537 34.4077C47.0537 32.1357 45.5817 30.7277 42.6377 30.1837L37.3097 30.2797L37.2617 33.6877L37.4057 38.8717C38.5257 38.9997 39.6297 39.0637 40.7177 39.0637Z" fill="#5927E5"/>
<path d="M67.4105 20.7277C70.6745 20.7277 73.1705 21.6877 74.8985 23.6077C76.6265 25.5277 77.4905 28.2957 77.4905 31.9117C77.4905 35.8157 76.5625 38.8077 74.7065 40.8877C72.8505 42.9357 70.1786 43.9597 66.6906 43.9597C63.4266 43.9597 60.9306 42.9997 59.2026 41.0797C57.4746 39.1597 56.6106 36.3917 56.6106 32.7757C56.6106 28.8717 57.5386 25.8957 59.3946 23.8477C61.2506 21.7677 63.9225 20.7277 67.4105 20.7277ZM66.9785 25.0477C65.4425 25.0477 64.3226 25.5597 63.6186 26.5837C62.9466 27.6077 62.6106 29.2557 62.6106 31.5277C62.6106 34.4717 62.9626 36.5677 63.6666 37.8157C64.3706 39.0637 65.5225 39.6877 67.1225 39.6877C68.6585 39.6877 69.7625 39.1917 70.4345 38.1997C71.1385 37.1757 71.4905 35.5117 71.4905 33.2077C71.4905 30.2957 71.1225 28.2157 70.3865 26.9677C69.6825 25.6877 68.5465 25.0477 66.9785 25.0477Z" fill="#5927E5"/>
<path d="M91.1292 20.7277C94.3932 20.7277 96.8892 21.6877 98.6172 23.6077C100.345 25.5277 101.209 28.2957 101.209 31.9117C101.209 35.8157 100.281 38.8077 98.4252 40.8877C96.5692 42.9357 93.8972 43.9597 90.4092 43.9597C87.1452 43.9597 84.6492 42.9997 82.9212 41.0797C81.1932 39.1597 80.3292 36.3917 80.3292 32.7757C80.3292 28.8717 81.2572 25.8957 83.1132 23.8477C84.9692 21.7677 87.6412 20.7277 91.1292 20.7277ZM90.6972 25.0477C89.1612 25.0477 88.0412 25.5597 87.3372 26.5837C86.6652 27.6077 86.3292 29.2557 86.3292 31.5277C86.3292 34.4717 86.6812 36.5677 87.3852 37.8157C88.0892 39.0637 89.2412 39.6877 90.8412 39.6877C92.3772 39.6877 93.4812 39.1917 94.1532 38.1997C94.8572 37.1757 95.2092 35.5117 95.2092 33.2077C95.2092 30.2957 94.8412 28.2157 94.1052 26.9677C93.4012 25.6877 92.2652 25.0477 90.6972 25.0477Z" fill="#5927E5"/>
<path d="M111.824 33.6397V57.4798H105.44L106.112 34.2157L111.824 0.48L118.208 0L111.824 33.6397ZM118.304 31.2397C120.032 34.0237 125.697 41.308 129.153 45.98L129.105 46.652C127.985 46.908 126.784 47.1 125.504 47.228C124.256 47.388 123.488 47.484 123.2 47.516L122.528 47.228C119.712 43.26 114.208 35.7517 112.16 31.8157V31.3837L117.728 23.4637L122.432 14.5357H129.153L118.304 31.2397Z" fill="#5927E5"/>
<path d="M138.614 20.7277C141.878 20.7277 144.374 21.6877 146.102 23.6077C147.83 25.5277 148.694 28.2957 148.694 31.9117C148.694 35.8157 147.766 38.8077 145.91 40.8877C144.054 42.9357 141.382 43.9597 137.894 43.9597C134.63 43.9597 132.134 42.9997 130.406 41.0797C128.678 39.1597 127.814 36.3917 127.814 32.7757C127.814 28.8717 128.742 25.8957 130.598 23.8477C132.454 21.7677 135.126 20.7277 138.614 20.7277ZM138.182 25.0477C136.646 25.0477 135.526 25.5597 134.822 26.5837C134.15 27.6077 133.814 29.2557 133.814 31.5277C133.814 34.4717 134.166 36.5677 134.87 37.8157C135.574 39.0637 136.726 39.6877 138.326 39.6877C139.862 39.6877 140.966 39.1917 141.638 38.1997C142.342 37.1757 142.694 35.5117 142.694 33.2077C142.694 30.2957 142.326 28.2157 141.59 26.9677C140.886 25.6877 139.75 25.0477 138.182 25.0477Z" fill="#5927E5"/>
<path d="M164.877 20.8717C167.661 20.8717 169.805 21.8157 171.309 23.7037C172.813 25.5917 173.565 28.2637 173.565 31.7197C173.565 35.6237 172.589 38.6477 170.637 40.7917C168.717 42.9037 165.997 43.9597 162.477 43.9597C161.453 43.9597 160.381 43.8637 159.261 43.6717L159.405 52.3597H153.069L153.405 34.2637L153.117 21.5917L159.213 21.0637L159.165 24.3277H159.501C160.397 23.4637 161.261 22.7757 162.093 22.2637C162.925 21.7197 163.853 21.2557 164.877 20.8717ZM162.525 39.7837C164.189 39.7837 165.453 39.1917 166.317 38.0077C167.181 36.8237 167.613 35.0797 167.613 32.7757C167.613 30.5357 167.245 28.8557 166.509 27.7357C165.805 26.5837 164.749 26.0077 163.341 26.0077C161.965 26.0077 160.573 26.6957 159.165 28.0717L159.117 33.6397L159.213 39.0637C160.365 39.5437 161.469 39.7837 162.525 39.7837Z" fill="#5927E5"/>
<path d="M187.177 20.7277C190.441 20.7277 192.937 21.6877 194.665 23.6077C196.393 25.5277 197.257 28.2957 197.257 31.9117C197.257 35.8157 196.329 38.8077 194.473 40.8877C192.617 42.9357 189.945 43.9597 186.457 43.9597C183.193 43.9597 180.697 42.9997 178.969 41.0797C177.241 39.1597 176.377 36.3917 176.377 32.7757C176.377 28.8717 177.305 25.8957 179.161 23.8477C181.017 21.7677 183.689 20.7277 187.177 20.7277ZM186.745 25.0477C185.209 25.0477 184.089 25.5597 183.385 26.5837C182.713 27.6077 182.377 29.2557 182.377 31.5277C182.377 34.4717 182.729 36.5677 183.433 37.8157C184.137 39.0637 185.289 39.6877 186.889 39.6877C188.425 39.6877 189.529 39.1917 190.201 38.1997C190.905 37.1757 191.257 35.5117 191.257 33.2077C191.257 30.2957 190.889 28.2157 190.153 26.9677C189.449 25.6877 188.313 25.0477 186.745 25.0477Z" fill="#5927E5"/>
<path d="M207.872 33.6397L208.208 43.4797H201.824L202.16 34.2157L201.872 10.2637L208.256 9.78374L207.872 33.6397Z" fill="#5927E5"/>
<path d="M214.673 34.2637L214.433 21.5917L220.721 21.0637L220.433 33.6397L220.721 43.4797H214.337L214.673 34.2637ZM217.697 10.2157C218.689 10.2157 219.457 10.5037 220.001 11.0797C220.577 11.6557 220.865 12.4557 220.865 13.4797C220.865 14.5677 220.561 15.4317 219.953 16.0717C219.345 16.7117 218.513 17.0317 217.457 17.0317C216.401 17.0317 215.585 16.7437 215.009 16.1677C214.465 15.5917 214.193 14.7757 214.193 13.7197C214.193 12.6637 214.497 11.8157 215.105 11.1757C215.745 10.5357 216.609 10.2157 217.697 10.2157Z" fill="#5927E5"/>
<path d="M234.245 20.7757C236.421 20.7757 238.469 21.1437 240.389 21.8797L239.525 26.5837L238.757 26.8237C237.829 26.2157 236.901 25.7517 235.973 25.4317C235.045 25.1117 234.229 24.9517 233.525 24.9517C232.757 24.9517 232.149 25.1597 231.701 25.5757C231.253 25.9597 231.029 26.4397 231.029 27.0157C231.029 27.6877 231.317 28.2317 231.893 28.6477C232.501 29.0637 233.445 29.5277 234.725 30.0397C236.005 30.5517 237.061 31.0477 237.893 31.5277C238.725 32.0077 239.429 32.6797 240.005 33.5437C240.613 34.3757 240.917 35.4157 240.917 36.6637C240.917 37.9437 240.581 39.1437 239.909 40.2637C239.269 41.3517 238.277 42.2477 236.933 42.9517C235.589 43.6237 233.941 43.9597 231.989 43.9597C229.685 43.9597 227.301 43.4797 224.837 42.5197L225.557 37.5277L226.181 37.1437C227.173 37.9757 228.277 38.6477 229.493 39.1597C230.709 39.6397 231.781 39.8797 232.709 39.8797C233.573 39.8797 234.245 39.6717 234.725 39.2557C235.205 38.8077 235.445 38.2797 235.445 37.6717C235.445 36.9997 235.141 36.4557 234.533 36.0397C233.957 35.6237 233.029 35.1597 231.749 34.6477C230.437 34.0717 229.365 33.5597 228.533 33.1117C227.701 32.6317 226.981 31.9597 226.373 31.0957C225.797 30.2317 225.509 29.1597 225.509 27.8797C225.509 25.7997 226.293 24.1037 227.861 22.7917C229.429 21.4477 231.557 20.7757 234.245 20.7757Z" fill="#5927E5"/>
</svg>
