<svg width="23" height="36" viewBox="0 0 23 36" fill="none" xmlns="http://www.w3.org/2000/svg">
<path fill-rule="evenodd" clip-rule="evenodd" d="M19 11C19 15.4183 15.4183 19 11 19C6.58172 19 3 15.4183 3 11C3 6.58172 6.58172 3 11 3C15.4183 3 19 6.58172 19 11ZM13.4981 21.7151C12.6955 21.9015 11.8593 22 11 22C4.92487 22 0 17.0751 0 11C0 4.92487 4.92487 0 11 0C17.0751 0 22 4.92487 22 11C22 15.1508 19.7009 18.7647 16.3067 20.6376L22.8492 34.5175L20.1356 35.7966L13.4981 21.7151Z" fill="#241D30"/>
</svg>
